<svg width="31" height="18" viewBox="0 0 31 18" fill="none" xmlns="http://www.w3.org/2000/svg">
<path d="M17.5896 6.60199C16.9255 5.93795 16.0427 5.57227 15.1037 5.57227C14.1647 5.57227 13.2818 5.93795 12.6194 6.60041L9.01474 10.1913C8.55624 10.648 8.55478 11.39 9.01158 11.8485C9.2405 12.0784 9.54109 12.1934 9.84179 12.1934C10.1409 12.1934 10.4402 12.0795 10.6688 11.8517L13.8848 8.64809L13.8848 15.8848C13.8848 16.532 14.4094 17.0566 15.0566 17.0566C15.7039 17.0566 16.2285 16.532 16.2285 15.8848V8.55727L19.4989 11.8477C19.9551 12.3067 20.6972 12.3088 21.1562 11.8527C21.6152 11.3964 21.6174 10.6545 21.1612 10.1954L17.5896 6.60199Z" fill="#FC6101"/>
<path d="M28.8848 0.943359L1.22852 0.943359C0.581289 0.943359 0.0566406 1.46801 0.0566406 2.11523C0.0566406 2.76246 0.581289 3.28711 1.22852 3.28711L28.8848 3.28711C29.532 3.28711 30.0566 2.76246 30.0566 2.11523C30.0566 1.46801 29.532 0.943359 28.8848 0.943359Z" fill="#FC6101"/>
</svg>
