<svg width="30" height="30" viewBox="0 0 30 30" fill="none" xmlns="http://www.w3.org/2000/svg">
<path d="M10.4546 17.4389C11.1187 16.7749 11.4844 15.892 11.4844 14.953C11.4844 14.0139 11.1187 13.131 10.4521 12.4645L6.86127 8.89542C6.40225 8.43915 5.66021 8.44137 5.204 8.9004C4.74779 9.35942 4.74996 10.1014 5.20904 10.5577L8.49938 13.8281L1.17187 13.8281C0.524648 13.8281 -3.07463e-07 14.3528 -2.79172e-07 15C-2.50881e-07 15.6472 0.524648 16.1719 1.17187 16.1719L8.40861 16.1719L5.20494 19.3878C4.7482 19.8463 4.74955 20.5883 5.20811 21.0451C5.66666 21.5019 6.40863 21.5004 6.86537 21.0419L10.4546 17.4389Z" fill="#FC6101"/>
<path d="M19.5454 12.4671C18.8813 13.1311 18.5156 14.0139 18.5156 14.953C18.5156 15.892 18.8813 16.7749 19.5438 17.4373L23.1346 21.0419C23.5914 21.5004 24.3333 21.5019 24.7919 21.0451C25.0218 20.8161 25.1367 20.5156 25.1367 20.2148C25.1367 19.9157 25.0229 19.6164 24.7951 19.3878L21.5914 16.1719L28.8281 16.1719C29.4754 16.1719 30 15.6472 30 15C30 14.3528 29.4754 13.8281 28.8281 13.8281L21.5006 13.8281L24.791 10.5577C25.2501 10.1016 25.2522 9.35948 24.7961 8.90045C24.3398 8.44143 23.5978 8.4392 23.1388 8.89547L19.5454 12.4671Z" fill="#FC6101"/>
<path d="M13.8867 1.17188L13.8867 28.8281C13.8867 29.4754 14.4114 30 15.0586 30C15.7058 30 16.2305 29.4754 16.2305 28.8281L16.2305 1.17187C16.2305 0.524649 15.7058 -7.95155e-08 15.0586 -5.12243e-08C14.4114 -2.29331e-08 13.8867 0.524649 13.8867 1.17188Z" fill="#FC6101"/>
</svg>
