<svg width="17" height="30" viewBox="0 0 17 30" fill="none" xmlns="http://www.w3.org/2000/svg">
<path d="M5.65863 12.4671C4.99459 13.1311 4.62891 14.0139 4.62891 14.953C4.62891 15.892 4.99459 16.7749 5.65705 17.4373L9.24791 21.0419C9.70465 21.5004 10.4466 21.5019 10.9052 21.0451C11.135 20.8161 11.25 20.5156 11.25 20.2148C11.25 19.9157 11.1362 19.6164 10.9083 19.3878L7.70473 16.1719L14.9414 16.1719C15.5886 16.1719 16.1133 15.6472 16.1133 15C16.1133 14.3528 15.5886 13.8281 14.9414 13.8281L7.61391 13.8281L10.9043 10.5577C11.3634 10.1016 11.3655 9.35948 10.9093 8.90045C10.4531 8.44143 9.71109 8.4392 9.25207 8.89547L5.65863 12.4671Z" fill="#FC6101"/>
<path d="M-1.26012e-06 1.17188L-5.12243e-08 28.8281C-2.29331e-08 29.4754 0.524648 30 1.17188 30C1.8191 30 2.34375 29.4754 2.34375 28.8281L2.34375 1.17187C2.34375 0.524649 1.8191 -7.95155e-08 1.17187 -5.12243e-08C0.524647 -2.29331e-08 -1.28841e-06 0.524649 -1.26012e-06 1.17188Z" fill="#FC6101"/>
</svg>
