<svg width="17" height="30" viewBox="0 0 17 30" fill="none" xmlns="http://www.w3.org/2000/svg">
<path d="M10.4546 17.5329C11.1187 16.8689 11.4844 15.9861 11.4844 15.047C11.4844 14.108 11.1187 13.2251 10.4562 12.5627L6.86537 8.9581C6.40863 8.4996 5.66666 8.49814 5.20811 8.95494C4.97824 9.18386 4.86328 9.48445 4.86328 9.78515C4.86328 10.0843 4.97713 10.3836 5.20494 10.6122L8.40856 13.8281L1.17187 13.8281C0.524648 13.8281 -2.50881e-07 14.3528 -2.79172e-07 15C-3.07463e-07 15.6472 0.524648 16.1719 1.17187 16.1719L8.49937 16.1719L5.20898 19.4423C4.7499 19.8984 4.74779 20.6405 5.20394 21.0995C5.66021 21.5586 6.40219 21.5608 6.86121 21.1045L10.4546 17.5329Z" fill="#FC6101"/>
<path d="M16.1133 28.8281L16.1133 1.17188C16.1133 0.524648 15.5886 -2.29331e-08 14.9414 -5.12243e-08C14.2942 -7.95155e-08 13.7695 0.524648 13.7695 1.17187L13.7695 28.8281C13.7695 29.4754 14.2942 30 14.9414 30C15.5886 30 16.1133 29.4754 16.1133 28.8281Z" fill="#FC6101"/>
</svg>
