<svg width="30" height="30" viewBox="0 0 30 30" fill="none" xmlns="http://www.w3.org/2000/svg">
<path d="M12.5611 10.4546C13.2251 11.1187 14.108 11.4844 15.047 11.4844C15.9861 11.4844 16.869 11.1187 17.5355 10.4521L21.1046 6.86127C21.5609 6.40225 21.5586 5.66021 21.0996 5.204C20.6406 4.74779 19.8986 4.74996 19.4423 5.20904L16.1719 8.49938V1.17188C16.1719 0.524648 15.6472 0 15 0C14.3528 0 13.8281 0.524648 13.8281 1.17188V8.40861L10.6122 5.20494C10.1537 4.7482 9.41173 4.74955 8.95494 5.20811C8.49814 5.66666 8.4996 6.40863 8.9581 6.86537L12.5611 10.4546Z" fill="#FC6101"/>
<path d="M17.5329 19.5454C16.8689 18.8813 15.9861 18.5156 15.047 18.5156C14.108 18.5156 13.2251 18.8813 12.5627 19.5438L8.9581 23.1346C8.4996 23.5914 8.49814 24.3333 8.95494 24.7919C9.18386 25.0218 9.48445 25.1367 9.78515 25.1367C10.0843 25.1367 10.3836 25.0229 10.6122 24.7951L13.8281 21.5914V28.8281C13.8281 29.4754 14.3528 30 15 30C15.6472 30 16.1719 29.4754 16.1719 28.8281V21.5006L19.4423 24.791C19.8984 25.2501 20.6405 25.2522 21.0995 24.7961C21.5586 24.3398 21.5608 23.5978 21.1045 23.1388L17.5329 19.5454Z" fill="#FC6101"/>
<path d="M28.8281 13.8867H1.17188C0.524648 13.8867 0 14.4114 0 15.0586C0 15.7058 0.524648 16.2305 1.17188 16.2305H28.8281C29.4754 16.2305 30 15.7058 30 15.0586C30 14.4114 29.4754 13.8867 28.8281 13.8867Z" fill="#FC6101"/>
</svg>
