<svg width="30" height="18" viewBox="0 0 30 18" fill="none" xmlns="http://www.w3.org/2000/svg">
<path d="M12.4671 11.398C13.1311 12.062 14.0139 12.4277 14.953 12.4277C15.892 12.4277 16.7749 12.0621 17.4373 11.3996L21.0419 7.80873C21.5004 7.35199 21.5019 6.61002 21.0451 6.15147C20.8161 5.9216 20.5156 5.80664 20.2148 5.80664C19.9157 5.80664 19.6164 5.92049 19.3878 6.1483L16.1719 9.35191L16.1719 2.11523C16.1719 1.46801 15.6472 0.943359 15 0.943359C14.3528 0.943359 13.8281 1.46801 13.8281 2.11523L13.8281 9.44273L10.5577 6.15234C10.1016 5.69326 9.35948 5.69115 8.90046 6.1473C8.44143 6.60357 8.43921 7.34555 8.89547 7.80457L12.4671 11.398Z" fill="#FC6101"/>
<path d="M1.17188 17.0566L28.8281 17.0566C29.4754 17.0566 30 16.532 30 15.8848C30 15.2375 29.4754 14.7129 28.8281 14.7129L1.17188 14.7129C0.524649 14.7129 1.59031e-07 15.2375 1.02449e-07 15.8848C4.58662e-08 16.532 0.524649 17.0566 1.17188 17.0566Z" fill="#FC6101"/>
</svg>
