<svg width="24" height="12" viewBox="0 0 24 12" fill="none" xmlns="http://www.w3.org/2000/svg">
<path d="M0.274981 6.85111C0.275261 6.85139 0.275496 6.85172 0.275824 6.852L5.17445 11.727C5.54143 12.0922 6.13501 12.0908 6.50031 11.7238C6.86555 11.3568 6.86415 10.7633 6.49716 10.398L3.20823 7.125L23.0625 7.12501C23.5803 7.12501 24 6.70529 24 6.18751C24 5.66972 23.5803 5.25001 23.0625 5.25001L3.20828 5.25L6.49712 1.97701C6.8641 1.61176 6.86551 1.01818 6.50026 0.651195C6.13496 0.284117 5.54134 0.282852 5.1744 0.648008L0.275776 5.523C0.275496 5.52329 0.275261 5.52361 0.274933 5.52389C-0.0922388 5.89036 -0.0910659 6.48586 0.274981 6.85111Z" fill="#00273E"/>
</svg>
