<?xml version="1.0" standalone="no"?>
<!DOCTYPE svg PUBLIC "-//W3C//DTD SVG 20010904//EN"
 "http://www.w3.org/TR/2001/REC-SVG-20010904/DTD/svg10.dtd">
<svg version="1.0" xmlns="http://www.w3.org/2000/svg"
 width="864.000000pt" height="1280.000000pt" viewBox="0 0 864.000000 1280.000000"
 preserveAspectRatio="xMidYMid meet">
<metadata>
Created by potrace 1.15, written by Peter Selinger 2001-2017
</metadata>
<g transform="translate(0.000000,1280.000000) scale(0.100000,-0.100000)"
fill="#e91e63" stroke="none">
<path d="M5503 10171 c-17 -11 -58 -41 -91 -68 -160 -129 -377 -202 -737 -248
-241 -31 -602 -14 -964 46 -225 37 -312 74 -423 175 -39 36 -82 70 -95 75 -32
12 -105 11 -138 -1 -26 -10 -168 -118 -231 -177 -56 -52 -267 -139 -564 -233
-281 -88 -332 -106 -461 -162 -127 -54 -153 -75 -162 -128 -3 -19 -28 -72 -55
-118 -53 -87 -118 -270 -146 -412 -21 -103 -43 -288 -61 -515 -9 -104 -38
-435 -65 -735 -27 -300 -66 -788 -85 -1085 -19 -297 -39 -603 -45 -680 -14
-207 -28 -516 -45 -1005 -36 -1034 -36 -1057 -4 -1670 14 -255 18 -719 7 -875
-3 -49 -9 -138 -13 -196 -5 -71 -4 -108 3 -113 10 -6 495 18 597 29 85 10 219
35 248 47 15 6 29 20 32 32 2 11 6 143 8 291 l3 270 41 155 c43 159 52 223
112 750 51 442 64 581 63 675 -1 66 5 109 21 162 12 40 25 73 28 73 8 0 23
-267 21 -365 -3 -112 -27 -321 -67 -585 -60 -389 -57 -358 -35 -472 30 -153
36 -330 16 -458 -9 -58 -18 -159 -19 -225 -2 -133 9 -166 59 -185 33 -13 2178
-12 2799 0 253 5 654 12 890 16 l430 6 17 -30 c14 -26 30 -35 115 -61 251 -77
415 -104 658 -105 227 -1 240 3 231 67 -34 239 -43 1113 -17 1537 8 118 15
480 16 850 2 355 6 764 10 910 11 478 -17 1687 -50 2190 -62 919 -91 1173
-156 1373 -37 114 -80 192 -167 307 -37 49 -74 100 -84 113 -11 16 -49 34
-130 62 -151 51 -235 89 -543 242 -275 137 -417 221 -438 258 -11 20 -169 159
-227 198 -32 22 -68 21 -107 -2z m-3142 -4438 c-8 -14 -10 -7 -11 32 0 28 4
61 8 75 5 19 8 11 10 -32 2 -32 -2 -66 -7 -75z"/>
</g>
</svg>
