<?xml version="1.0" standalone="no"?>
<!DOCTYPE svg PUBLIC "-//W3C//DTD SVG 20010904//EN"
 "http://www.w3.org/TR/2001/REC-SVG-20010904/DTD/svg10.dtd">
<svg version="1.0" xmlns="http://www.w3.org/2000/svg"
 width="1280.000000pt" height="1099.000000pt" viewBox="0 0 1280.000000 1099.000000"
 preserveAspectRatio="xMidYMid meet">
<metadata>
Created by potrace 1.15, written by Peter Selinger 2001-2017
</metadata>
<g transform="translate(0.000000,1099.000000) scale(0.100000,-0.100000)"
fill="#e91e63" stroke="none">
<path d="M3845 10983 c-181 -40 -400 -130 -754 -308 -300 -152 -659 -350 -801
-443 -63 -41 -140 -91 -170 -110 -30 -20 -96 -77 -145 -126 -118 -118 -159
-199 -208 -411 -44 -188 -58 -275 -61 -373 l-3 -78 -79 -74 c-120 -113 -212
-193 -399 -344 -309 -250 -453 -388 -620 -596 -78 -97 -198 -276 -244 -365
l-31 -60 12 -776 12 -776 -24 -54 c-141 -328 -187 -702 -125 -1031 14 -77 14
-102 1 -264 -40 -483 -44 -820 -16 -1344 l13 -235 -36 -110 c-131 -396 -171
-658 -163 -1045 6 -283 31 -372 158 -548 33 -46 64 -100 69 -120 28 -125 43
-270 43 -432 1 -189 -6 -235 -56 -393 -29 -91 -31 -102 -20 -145 36 -137 138
-261 244 -299 73 -25 228 -23 320 4 l68 20 83 -43 c165 -86 342 -117 569 -99
l96 7 56 123 c97 216 121 341 114 600 l-5 176 29 20 c39 28 70 86 117 217 97
269 200 677 222 870 45 412 174 820 342 1085 95 151 154 318 183 524 31 222 2
687 -63 1028 -27 141 -36 310 -20 368 l7 27 100 0 c87 0 103 -3 120 -20 51
-51 142 -222 251 -468 34 -75 94 -209 134 -297 68 -149 73 -166 79 -248 20
-280 78 -494 219 -812 24 -55 68 -163 97 -240 117 -311 322 -758 523 -1140
150 -286 592 -1098 633 -1162 64 -100 133 -131 307 -137 93 -3 103 -6 190 -49
168 -84 308 -113 495 -104 130 6 235 29 377 82 80 30 142 43 393 80 454 67
567 96 896 227 281 112 357 131 516 125 88 -4 138 -10 170 -23 32 -13 72 -18
140 -19 88 0 100 3 157 33 88 45 254 206 290 280 42 85 38 164 -16 310 -22 62
-41 115 -41 119 0 3 48 -40 108 -94 117 -109 168 -143 251 -167 120 -35 221
-8 299 79 26 30 76 73 112 95 35 23 88 65 119 94 47 44 70 58 141 81 180 58
303 129 424 244 147 141 221 283 295 565 17 65 99 313 182 553 136 392 151
441 146 484 -8 68 -44 129 -147 254 -136 163 -176 223 -245 363 -104 212 -307
539 -618 992 -128 187 -180 273 -253 421 -161 325 -366 803 -499 1166 -35 94
-59 132 -311 495 -210 303 -284 418 -323 501 l-51 109 98 -8 c146 -11 475 -8
582 5 53 7 135 20 183 29 l86 18 12 -56 c60 -294 257 -530 616 -738 113 -66
172 -77 418 -75 116 1 244 5 285 11 65 8 78 7 100 -8 50 -35 134 -72 208 -92
69 -19 100 -22 296 -20 194 1 224 4 258 21 l39 19 97 -49 c100 -50 264 -107
457 -158 61 -16 144 -41 185 -56 187 -68 365 -10 406 134 9 31 47 135 85 233
105 269 139 434 139 683 0 86 5 147 15 179 37 121 -2 230 -105 296 -25 16
-207 96 -405 179 -282 117 -363 154 -372 173 -7 12 -30 63 -52 111 -98 216
-286 489 -464 673 -139 145 -184 176 -339 238 -434 174 -929 438 -1160 618
-280 219 -640 385 -1018 469 -83 18 -145 22 -495 29 -220 5 -479 13 -575 19
-371 22 -474 23 -750 12 -910 -37 -1689 -100 -2124 -172 l-118 -19 -41 47
c-96 113 -219 215 -331 278 -68 37 -265 115 -338 133 -45 11 -211 15 -253 5z"/>
</g>
</svg>
